name C:\Users\r0593348\3dpredictsim\Results\MidTarsalJoint\Fal_s1_bCst_PF_Natali2010_ls150_MT_k1500_d010_MTP_T5_ig24.mot
datacolumns 128
datarows 4
range 1.67155718 1.70498832
endheader
time	pelvis_tilt	pelvis_list	pelvis_rotation	pelvis_tx	pelvis_ty	pelvis_tz	hip_flexion_l	hip_adduction_l	hip_rotation_l	hip_flexion_r	hip_adduction_r	hip_rotation_r	knee_angle_l	knee_angle_r	ankle_angle_l	ankle_angle_r	subtalar_angle_l	subtalar_angle_r	mtj_angle_l	mtj_angle_r	mtp_angle_l	mtp_angle_r	lumbar_extension	lumbar_bending	lumbar_rotation	arm_flex_l	arm_add_l	arm_rot_l	arm_flex_r	arm_add_r	arm_rot_r	elbow_flex_l	elbow_flex_r	pro_sup_l	pro_sup_r	glut_med1_l/activation	glut_med2_l/activation	glut_med3_l/activation	glut_min1_l/activation	glut_min2_l/activation	glut_min3_l/activation	semimem_l/activation	semiten_l/activation	bifemlh_l/activation	bifemsh_l/activation	sar_l/activation	add_long_l/activation	add_brev_l/activation	add_mag1_l/activation	add_mag2_l/activation	add_mag3_l/activation	tfl_l/activation	pect_l/activation	grac_l/activation	glut_max1_l/activation	glut_max2_l/activation	glut_max3_l/activation	iliacus_l/activation	psoas_l/activation	quad_fem_l/activation	gem_l/activation	peri_l/activation	rect_fem_l/activation	vas_med_l/activation	vas_int_l/activation	vas_lat_l/activation	med_gas_l/activation	lat_gas_l/activation	soleus_l/activation	tib_post_l/activation	flex_dig_l/activation	flex_hal_l/activation	tib_ant_l/activation	per_brev_l/activation	per_long_l/activation	per_tert_l/activation	ext_dig_l/activation	ext_hal_l/activation	ercspn_l/activation	intobl_l/activation	extobl_l/activation	glut_med1_r/activation	glut_med2_r/activation	glut_med3_r/activation	glut_min1_r/activation	glut_min2_r/activation	glut_min3_r/activation	semimem_r/activation	semiten_r/activation	bifemlh_r/activation	bifemsh_r/activation	sar_r/activation	add_long_r/activation	add_brev_r/activation	add_mag1_r/activation	add_mag2_r/activation	add_mag3_r/activation	tfl_r/activation	pect_r/activation	grac_r/activation	glut_max1_r/activation	glut_max2_r/activation	glut_max3_r/activation	iliacus_r/activation	psoas_r/activation	quad_fem_r/activation	gem_r/activation	peri_r/activation	rect_fem_r/activation	vas_med_r/activation	vas_int_r/activation	vas_lat_r/activation	med_gas_r/activation	lat_gas_r/activation	soleus_r/activation	tib_post_r/activation	flex_dig_r/activation	flex_hal_r/activation	tib_ant_r/activation	per_brev_r/activation	per_long_r/activation	per_tert_r/activation	ext_dig_r/activation	ext_hal_r/activation	ercspn_r/activation	intobl_r/activation	extobl_r/activation	
          1.67155718	         -2.92911672	          1.99416648	         -4.74982061	          2.08944647	          0.92065852	          0.00169028	         29.93711240	          3.19026972	         -2.04974077	        -17.48849476	         -0.83987011	          6.54319185	        -13.02594680	         -5.05003270	          6.31036806	          0.07220927	         -4.16991116	          7.71919254	         -0.00818691	          1.22409660	         -0.89637364	         18.00210300	         -2.26414166	         -0.12503098	          1.87148108	         -4.32672315	        -13.47100170	          6.33741154	          5.21868070	        -13.45042070	         15.78004430	         17.52361357	         32.49637105	         86.51662706	         86.51662706	          0.07029627	          0.05000614	          0.05928610	          0.05000165	          0.05000176	          0.05002955	          0.08716253	          0.05933113	          0.22340152	          0.05001789	          0.05000187	          0.13096923	          0.16998204	          0.15555472	          0.14222926	          0.11366434	          0.05022652	          0.05008820	          0.09541637	          0.05928721	          0.08959202	          0.09896241	          0.05000019	          0.05000028	          0.17243850	          0.05000053	          0.05000254	          0.05000022	          0.05000195	          0.05000434	          0.05000114	          0.05000009	          0.05000021	          0.05000003	          0.05928621	          0.05000990	          0.05525207	          0.45164515	          0.26910315	          0.20211516	          0.08461240	          0.42790166	          0.15318017	          0.07029764	          0.12830457	          0.12218539	          0.32614808	          0.11719736	          0.08336478	          0.35678279	          0.23049699	          0.12598510	          0.05000144	          0.05000042	          0.05000034	          0.07371391	          0.11725712	          0.05000019	          0.05000014	          0.05000020	          0.05000054	          0.05000058	          0.35561307	          0.05000078	          0.05000056	          0.05010763	          0.05001193	          0.05000103	          0.43618071	          0.64532947	          0.05000041	          0.05001697	          0.06245185	          0.25064066	          0.05000051	          0.05000052	          0.05000050	          0.33490368	          0.45967623	          0.32134753	          0.29351254	          0.31379311	          0.38762509	          0.05000008	          0.05658048	          0.12618810	          0.05000041	          0.05000011	          0.05000042	          0.05000002	          0.05000002	          0.05000003	
          1.68270089	         -2.92992092	          2.08983689	         -5.05423594	          2.10585609	          0.91960126	          0.00149267	         29.39265302	          3.54105366	         -1.85809022	        -17.43625465	         -1.13943659	          6.33456736	        -12.55554091	         -6.81597784	          5.95492779	         -0.50871103	         -4.56914951	          8.65492465	         -0.00519715	          1.02130741	         -0.88966005	         19.17192810	         -2.09655448	         -0.33017432	          1.94240096	         -5.15036093	        -13.47148341	          6.02250526	          5.02566381	        -13.45750198	         16.15779046	         17.12356511	         33.65179047	         86.51662706	         86.51662706	          0.05928553	          0.05928318	          0.05000035	          0.05928645	          0.05928639	          0.05001889	          0.08287985	          0.05003787	          0.21468914	          0.05000029	          0.05000084	          0.13270945	          0.30612243	          0.15614784	          0.15089230	          0.11567053	          0.05000023	          0.08179319	          0.08047316	          0.05000109	          0.13689378	          0.15489201	          0.05551962	          0.05000075	          0.16037531	          0.24421095	          0.12721023	          0.06043535	          0.15369111	          0.15030173	          0.13529973	          0.05000041	          0.05000055	          0.05132951	          0.05000004	          0.05000064	          0.05000033	          0.58141725	          0.27802227	          0.17045676	          0.28004468	          0.49732635	          0.24058035	          0.05928647	          0.10820738	          0.10304669	          0.27506209	          0.09883999	          0.07030684	          0.30089777	          0.19439281	          0.10625128	          0.05000146	          0.05000048	          0.05000035	          0.06216766	          0.09889068	          0.10964956	          0.05592970	          0.05002000	          0.05002207	          0.05000173	          0.29991132	          0.10419914	          0.05004489	          0.05003876	          0.05002014	          0.05001728	          0.37831213	          0.61458953	          0.05052732	          0.05000191	          0.05266970	          0.21138164	          0.05723900	          0.05055592	          0.05022281	          0.28244551	          0.38767422	          0.29908541	          0.28942559	          0.28773189	          0.37765992	          0.05000007	          0.05849648	          0.12620791	          0.05000037	          0.05000010	          0.05000037	          0.05000007	          0.05000034	          0.05000018	
          1.69384461	         -2.92603446	          2.18419426	         -5.33490747	          2.12262203	          0.91858195	          0.00129015	         28.74539679	          3.87117422	         -1.61645868	        -17.28547023	         -1.43600439	          6.12348711	        -12.69268110	         -8.76517921	          5.34842815	         -1.22823599	         -4.94937550	          9.57579209	         -0.01055630	          0.77823777	         -0.87495889	         20.30156432	         -1.90228797	         -0.54314079	          2.00589844	         -6.01899895	        -13.47318091	          5.73907809	          4.74880246	        -13.46768947	         16.47113940	         16.78843606	         34.79287238	         86.51662706	         86.51662706	          0.05000002	          0.05000009	          0.11139199	          0.05000009	          0.05000010	          0.05000016	          0.06989795	          0.05000051	          0.18106103	          0.05000030	          0.05000343	          0.11192252	          0.25817282	          0.31377519	          0.21527695	          0.13339001	          0.05000137	          0.06898670	          0.11614532	          0.08346471	          0.12063531	          0.13063048	          0.05000012	          0.05000157	          0.37369895	          0.20595862	          0.10728451	          0.05928964	          0.14921857	          0.15394592	          0.12959837	          0.05000045	          0.05928957	          0.05000004	          0.06638867	          0.05001290	          0.05928725	          0.49034634	          0.31285221	          0.20863100	          0.23617962	          0.45476356	          0.20289674	          0.05000005	          0.09125815	          0.08690581	          0.23197739	          0.08335806	          0.05929425	          0.25376645	          0.16394386	          0.08960850	          0.05000867	          0.05000085	          0.05000098	          0.05243003	          0.08340106	          0.19610050	          0.07471368	          0.05953434	          0.05923888	          0.05928764	          0.25293442	          0.08912092	          0.05000404	          0.05000548	          0.05000279	          0.05000446	          0.31905471	          0.56745173	          0.05000057	          0.05004976	          0.05928621	          0.17827757	          0.12830390	          0.15068941	          0.14547262	          0.23820419	          0.32695025	          0.25223769	          0.24838717	          0.24266348	          0.31850590	          0.05000005	          0.05000018	          0.13503454	          0.05000016	          0.05000005	          0.05000024	          0.05791292	          0.05928704	          0.05417024	
          1.70498832	         -2.91834636	          2.28074923	         -5.58755864	          2.13964402	          0.91760378	          0.00110077	         27.97767299	          4.12788534	         -1.35489413	        -17.05558119	         -1.72982123	          5.90293112	        -13.15390353	        -10.83966902	          4.86147022	         -2.12283412	         -5.34922466	         10.44860110	         -0.04183392	          0.51215522	         -0.93341852	         21.31507971	         -1.69056737	         -0.76580587	          2.05827334	         -6.90667915	        -13.48104017	          5.51310452	          4.40252341	        -13.47684235	         16.72048442	         16.49533422	         35.91506887	         86.51662706	         86.51662706	          0.24018443	          0.23704379	          0.29646227	          0.34817027	          0.21645011	          0.19357238	          0.07589908	          0.05000239	          0.15454319	          0.05159242	          0.05001759	          0.09439143	          0.21773363	          0.26462666	          0.18155692	          0.12149135	          0.05000075	          0.05928639	          0.09795372	          0.14939950	          0.14568746	          0.11016921	          0.05866382	          0.05000117	          0.31516411	          0.17369816	          0.22821203	          0.05000276	          0.12584564	          0.12983252	          0.10929865	          0.05000114	          0.05000299	          0.05216580	          0.05598992	          0.05000059	          0.05000133	          0.57926376	          0.34063747	          0.17595221	          0.36958576	          0.53381561	          0.17116956	          0.06503848	          0.10828017	          0.07329318	          0.34042324	          0.07030116	          0.05000665	          0.32302919	          0.13826437	          0.07557259	          0.05000203	          0.05000036	          0.05000030	          0.05000028	          0.07033777	          0.16538420	          0.07494509	          0.05020953	          0.05000269	          0.05000174	          0.21413081	          0.07528921	          0.05000301	          0.05000553	          0.05000252	          0.05000158	          0.26907919	          0.53068188	          0.05000044	          0.05000093	          0.05000032	          0.15035286	          0.10820717	          0.12708628	          0.12268659	          0.20089269	          0.27573787	          0.21272802	          0.20948075	          0.20465376	          0.26861646	          0.05000002	          0.09857138	          0.15516097	          0.05000019	          0.05000007	          0.05000019	          0.05399285	          0.05000053	          0.05000008	
